999
"DXF R12 Output" (www.mydxf.blogspot.com)
 0 
SECTION
 2 
HEADER
 9 
$ACADVER
 1 
AC1009
 9 
$EXTMIN
 10 
 0 
 20 
 0 
 9 
$EXTMAX
 10 
 8.5 
 20 
 11 
 0 
ENDSEC
 0 
SECTION
 2 
ENTITIES
0
LINE
8
Layer 1
10
179.764979
20
234.910162
11
178.338348
21
234.980718
0
LINE
8
Layer 1
10
178.338348
20
234.980718
11
177.061295
21
235.192384
0
LINE
8
Layer 1
10
177.061295
20
235.192384
11
175.933819
21
235.545162
0
LINE
8
Layer 1
10
175.933819
20
235.545162
11
174.955921
21
236.039051
0
LINE
8
Layer 1
10
174.955921
20
236.039051
11
174.165700
21
236.689572
0
LINE
8
Layer 1
10
174.165700
20
236.689572
11
173.601256
21
237.489671
0
LINE
8
Layer 1
10
173.601256
20
237.489671
11
173.262589
21
238.439347
0
LINE
8
Layer 1
10
173.262589
20
238.439347
11
173.149701
21
239.538600
0
LINE
8
Layer 1
10
173.149701
20
239.538600
11
173.256945
21
240.633620
0
LINE
8
Layer 1
10
173.256945
20
240.633620
11
173.578677
21
241.435131
0
LINE
8
Layer 1
10
173.578677
20
241.435131
11
174.109255
21
241.926196
0
LINE
8
Layer 1
10
174.109255
20
241.926196
11
174.843032
21
242.089884
0
LINE
8
Layer 1
10
174.843032
20
242.089884
11
175.396186
21
242.010862
0
LINE
8
Layer 1
10
175.396186
20
242.010862
11
175.836451
21
241.773797
0
LINE
8
Layer 1
10
175.836451
20
241.773797
11
176.124318
21
241.412553
0
LINE
8
Layer 1
10
176.124318
20
241.412553
11
176.220274
21
240.960998
0
LINE
8
Layer 1
10
176.220274
20
240.960998
11
176.152540
21
240.170776
0
LINE
8
Layer 1
10
176.152540
20
240.170776
11
176.107384
21
239.854689
0
LINE
8
Layer 1
10
176.107384
20
239.854689
11
176.084815
21
239.380557
0
LINE
8
Layer 1
10
176.084815
20
239.380557
11
176.338815
21
238.494380
0
LINE
8
Layer 1
10
176.338815
20
238.494380
11
177.100814
21
237.867848
0
LINE
8
Layer 1
10
177.100814
20
237.867848
11
178.342589
21
237.495314
0
LINE
8
Layer 1
10
178.342589
20
237.495314
11
179.990764
21
237.371136
0
LINE
8
Layer 1
10
179.990764
20
237.371136
11
181.701028
21
237.540469
0
LINE
8
Layer 1
10
181.701028
20
237.540469
11
182.993604
21
238.048469
0
LINE
8
Layer 1
10
182.993604
20
238.048469
11
183.806403
21
238.883845
0
LINE
8
Layer 1
10
183.806403
20
238.883845
11
184.077336
21
239.990156
0
LINE
8
Layer 1
10
184.077336
20
239.990156
11
183.953158
21
240.701354
0
LINE
8
Layer 1
10
183.953158
20
240.701354
11
183.580626
21
241.299664
0
LINE
8
Layer 1
10
183.580626
20
241.299664
11
183.021826
21
241.813307
0
LINE
8
Layer 1
10
183.021826
20
241.813307
11
182.338848
21
242.225350
0
LINE
8
Layer 1
10
182.338848
20
242.225350
11
180.239120
21
243.151039
0
LINE
8
Layer 1
10
180.239120
20
243.151039
11
177.394324
21
244.437971
0
LINE
8
Layer 1
10
177.394324
20
244.437971
11
176.383970
21
245.154813
0
LINE
8
Layer 1
10
176.383970
20
245.154813
11
175.520372
21
246.086146
0
LINE
8
Layer 1
10
175.520372
20
246.086146
11
174.944640
21
247.271476
0
LINE
8
Layer 1
10
174.944640
20
247.271476
11
174.752730
21
248.705163
0
LINE
8
Layer 1
10
174.752730
20
248.705163
11
174.967218
21
250.240449
0
LINE
8
Layer 1
10
174.967218
20
250.240449
11
175.610682
21
251.595113
0
LINE
8
Layer 1
10
175.610682
20
251.595113
11
176.677481
21
252.718356
0
LINE
8
Layer 1
10
176.677481
20
252.718356
11
178.116813
21
253.559377
0
LINE
8
Layer 1
10
178.116813
20
253.559377
11
179.906098
21
254.084309
0
LINE
8
Layer 1
10
179.906098
20
254.084309
11
181.977605
21
254.259286
0
LINE
8
Layer 1
10
181.977605
20
254.259286
11
183.558047
21
254.135109
0
LINE
8
Layer 1
10
183.558047
20
254.135109
11
185.003022
21
253.762577
0
LINE
8
Layer 1
10
185.003022
20
253.762577
11
186.239153
21
253.158622
0
LINE
8
Layer 1
10
186.239153
20
253.158622
11
187.193063
21
252.295022
0
LINE
8
Layer 1
10
187.193063
20
252.295022
11
187.819594
21
251.188714
0
LINE
8
Layer 1
10
187.819594
20
251.188714
11
188.028438
21
249.856628
0
LINE
8
Layer 1
10
188.028438
20
249.856628
11
187.921194
21
248.609207
0
LINE
8
Layer 1
10
187.921194
20
248.609207
11
187.599462
21
247.711741
0
LINE
8
Layer 1
10
187.599462
20
247.711741
11
187.068886
21
247.169876
0
LINE
8
Layer 1
10
187.068886
20
247.169876
11
186.335110
21
246.989255
0
LINE
8
Layer 1
10
186.335110
20
246.989255
11
185.793243
21
247.079565
0
LINE
8
Layer 1
10
185.793243
20
247.079565
11
185.341688
21
247.350498
0
LINE
8
Layer 1
10
185.341688
20
247.350498
11
185.053823
21
247.745608
0
LINE
8
Layer 1
10
185.053823
20
247.745608
11
184.957868
21
248.208453
0
LINE
8
Layer 1
10
184.957868
20
248.208453
11
185.025601
21
248.998673
0
LINE
8
Layer 1
10
185.025601
20
248.998673
11
185.093334
21
249.856628
0
LINE
8
Layer 1
10
185.093334
20
249.856628
11
184.861912
21
250.692004
0
LINE
8
Layer 1
10
184.861912
20
250.692004
11
184.167646
21
251.301603
0
LINE
8
Layer 1
10
184.167646
20
251.301603
11
183.129070
21
251.674135
0
LINE
8
Layer 1
10
183.129070
20
251.674135
11
181.864715
21
251.798313
0
LINE
8
Layer 1
10
181.864715
20
251.798313
11
180.148808
21
251.617691
0
LINE
8
Layer 1
10
180.148808
20
251.617691
11
178.884455
21
251.075826
0
LINE
8
Layer 1
10
178.884455
20
251.075826
11
178.122456
21
250.229159
0
LINE
8
Layer 1
10
178.122456
20
250.229159
11
177.868456
21
249.088983
0
LINE
8
Layer 1
10
177.868456
20
249.088983
11
177.998279
21
248.293118
0
LINE
8
Layer 1
10
177.998279
20
248.293118
11
178.387746
21
247.621431
0
LINE
8
Layer 1
10
178.387746
20
247.621431
11
178.991700
21
247.062631
0
LINE
8
Layer 1
10
178.991700
20
247.062631
11
179.719831
21
246.605432
0
LINE
8
Layer 1
10
179.719831
20
246.605432
11
181.932449
21
245.634590
0
LINE
8
Layer 1
10
181.932449
20
245.634590
11
184.686935
21
244.370237
0
LINE
8
Layer 1
10
184.686935
20
244.370237
11
185.646488
21
243.704193
0
LINE
8
Layer 1
10
185.646488
20
243.704193
11
186.447997
21
242.834950
0
LINE
8
Layer 1
10
186.447997
20
242.834950
11
187.006796
21
241.751218
0
LINE
8
Layer 1
10
187.006796
20
241.751218
11
187.193063
21
240.441709
0
LINE
8
Layer 1
10
187.193063
20
240.441709
11
187.066063
21
239.185822
0
LINE
8
Layer 1
10
187.066063
20
239.185822
11
186.685064
21
238.082335
0
LINE
8
Layer 1
10
186.685064
20
238.082335
11
186.050065
21
237.131248
0
LINE
8
Layer 1
10
186.050065
20
237.131248
11
185.161068
21
236.332560
0
LINE
8
Layer 1
10
185.161068
20
236.332560
11
184.070280
21
235.710261
0
LINE
8
Layer 1
10
184.070280
20
235.710261
11
182.807337
21
235.265762
0
LINE
8
Layer 1
10
182.807337
20
235.265762
11
181.372240
21
234.999062
0
LINE
8
Layer 1
10
181.372240
20
234.999062
11
179.764987
21
234.910162
0
LINE
8
Layer 1
10
179.764987
20
234.910162
11
179.764979
21
234.910162
0
LINE
8
Layer 1
10
197.788384
20
241.976997
11
197.579540
21
240.238511
0
LINE
8
Layer 1
10
197.579540
20
240.238511
11
196.953008
21
238.590334
0
LINE
8
Layer 1
10
196.953008
20
238.590334
11
195.999098
21
237.156649
0
LINE
8
Layer 1
10
195.999098
20
237.156649
11
194.762967
21
236.016474
0
LINE
8
Layer 1
10
194.762967
20
236.016474
11
193.357502
21
235.260118
0
LINE
8
Layer 1
10
193.357502
20
235.260118
11
191.850438
21
234.977895
0
LINE
8
Layer 1
10
191.850438
20
234.977895
11
191.370661
21
230.981636
0
LINE
8
Layer 1
10
191.370661
20
230.981636
11
190.518352
21
227.707864
0
LINE
8
Layer 1
10
190.518352
20
227.707864
11
189.938387
21
226.423755
0
LINE
8
Layer 1
10
189.938387
20
226.423755
11
189.237065
21
225.506534
0
LINE
8
Layer 1
10
189.237065
20
225.506534
11
188.414389
21
224.956201
0
LINE
8
Layer 1
10
188.414389
20
224.956201
11
187.470356
21
224.772757
0
LINE
8
Layer 1
10
187.470356
20
224.772757
11
186.409204
21
224.992890
0
LINE
8
Layer 1
10
186.409204
20
224.992890
11
185.664138
21
225.653289
0
LINE
8
Layer 1
10
185.664138
20
225.653289
11
185.223871
21
226.703155
0
LINE
8
Layer 1
10
185.223871
20
226.703155
11
185.077116
21
228.091686
0
LINE
8
Layer 1
10
185.077116
20
228.091686
11
185.331115
21
230.490570
0
LINE
8
Layer 1
10
185.331115
20
230.490570
11
186.093114
21
233.261987
0
LINE
8
Layer 1
10
186.093114
20
233.261987
11
187.385690
21
236.349494
0
LINE
8
Layer 1
10
187.385690
20
236.349494
11
189.231421
21
239.741800
0
LINE
8
Layer 1
10
189.231421
20
239.741800
11
189.186264
21
244.325081
0
LINE
8
Layer 1
10
189.186264
20
244.325081
11
189.304802
21
244.912101
0
LINE
8
Layer 1
10
189.304802
20
244.912101
11
189.705553
21
245.363657
0
LINE
8
Layer 1
10
189.705553
20
245.363657
11
190.315153
21
245.651524
0
LINE
8
Layer 1
10
190.315153
20
245.651524
11
191.060218
21
245.747479
0
LINE
8
Layer 1
10
191.060218
20
245.747479
11
191.737551
21
245.544280
0
LINE
8
Layer 1
10
191.737551
20
245.544280
11
191.912527
21
245.267702
0
LINE
8
Layer 1
10
191.912527
20
245.267702
11
191.985904
21
244.799214
0
LINE
8
Layer 1
10
191.985904
20
244.799214
11
192.008473
21
243.963838
0
LINE
8
Layer 1
10
192.008473
20
243.963838
11
192.725315
21
244.737125
0
LINE
8
Layer 1
10
192.725315
20
244.737125
11
193.430869
21
245.250767
0
LINE
8
Layer 1
10
193.430869
20
245.250767
11
194.153358
21
245.555567
0
LINE
8
Layer 1
10
194.153358
20
245.555567
11
194.921000
21
245.657167
0
LINE
8
Layer 1
10
194.921000
20
245.657167
11
196.066821
21
245.403167
0
LINE
8
Layer 1
10
196.066821
20
245.403167
11
196.975574
21
244.641170
0
LINE
8
Layer 1
10
196.975574
20
244.641170
11
197.585174
21
243.467128
0
LINE
8
Layer 1
10
197.585174
20
243.467128
11
197.788373
21
241.976997
0
LINE
8
Layer 1
10
197.788373
20
241.976997
11
197.788384
21
241.976997
0
LINE
8
Layer 1
10
191.963327
20
237.145359
11
192.742260
21
237.455804
0
LINE
8
Layer 1
10
192.742260
20
237.455804
11
193.453459
21
238.025892
0
LINE
8
Layer 1
10
193.453459
20
238.025892
11
194.079991
21
238.827401
0
LINE
8
Layer 1
10
194.079991
20
238.827401
11
194.559768
21
239.786956
0
LINE
8
Layer 1
10
194.559768
20
239.786956
11
194.864567
21
240.870687
0
LINE
8
Layer 1
10
194.864567
20
240.870687
11
194.966167
21
241.999574
0
LINE
8
Layer 1
10
194.966167
20
241.999574
11
194.898434
21
242.592240
0
LINE
8
Layer 1
10
194.898434
20
242.592240
11
194.695234
21
243.015572
0
LINE
8
Layer 1
10
194.695234
20
243.015572
11
194.379145
21
243.286505
0
LINE
8
Layer 1
10
194.379145
20
243.286505
11
193.972745
21
243.376816
0
LINE
8
Layer 1
10
193.972745
20
243.376816
11
193.545180
21
243.269571
0
LINE
8
Layer 1
10
193.545180
20
243.269571
11
193.075282
21
242.947839
0
LINE
8
Layer 1
10
193.075282
20
242.947839
11
192.008484
21
241.660908
0
LINE
8
Layer 1
10
192.008484
20
241.660908
11
191.985915
21
238.748378
0
LINE
8
Layer 1
10
191.985915
20
238.748378
11
191.963346
21
237.145359
0
LINE
8
Layer 1
10
191.963346
20
237.145359
11
191.963327
21
237.145359
0
LINE
8
Layer 1
10
187.650979
20
226.985378
11
187.943079
21
227.151888
0
LINE
8
Layer 1
10
187.943079
20
227.151888
11
188.209778
21
227.651421
0
LINE
8
Layer 1
10
188.209778
20
227.651421
11
188.666978
21
229.649551
0
LINE
8
Layer 1
10
188.666978
20
229.649551
11
188.999999
21
232.618523
0
LINE
8
Layer 1
10
188.999999
20
232.618523
11
189.186264
21
236.242250
0
LINE
8
Layer 1
10
189.186264
20
236.242250
11
188.317022
21
234.035276
0
LINE
8
Layer 1
10
188.317022
20
234.035276
11
187.650979
21
231.929902
0
LINE
8
Layer 1
10
187.650979
20
231.929902
11
187.227647
21
230.039016
0
LINE
8
Layer 1
10
187.227647
20
230.039016
11
187.086536
21
228.475506
0
LINE
8
Layer 1
10
187.086536
20
228.475506
11
187.267156
21
227.369197
0
LINE
8
Layer 1
10
187.267156
20
227.369197
11
187.442135
21
227.081333
0
LINE
8
Layer 1
10
187.442135
20
227.081333
11
187.650979
21
226.985378
0
LINE
8
Layer 1
10
187.650979
20
226.985378
11
187.650979
21
226.985378
0
LINE
8
Layer 1
10
207.525766
20
239.448290
11
207.785409
21
239.380557
0
LINE
8
Layer 1
10
207.785409
20
239.380557
11
207.977319
21
239.177357
0
LINE
8
Layer 1
10
207.977319
20
239.177357
11
208.157942
21
238.432291
0
LINE
8
Layer 1
10
208.157942
20
238.432291
11
208.061986
21
237.675936
0
LINE
8
Layer 1
10
208.061986
20
237.675936
11
207.774119
21
237.032470
0
LINE
8
Layer 1
10
207.774119
20
237.032470
11
207.040344
21
236.168872
0
LINE
8
Layer 1
10
207.040344
20
236.168872
11
206.103368
21
235.519761
0
LINE
8
Layer 1
10
206.103368
20
235.519761
11
204.985769
21
235.113362
0
LINE
8
Layer 1
10
204.985769
20
235.113362
11
203.664971
21
234.977895
0
LINE
8
Layer 1
10
203.664971
20
234.977895
11
202.641918
21
235.058329
0
LINE
8
Layer 1
10
202.641918
20
235.058329
11
201.740220
21
235.299628
0
LINE
8
Layer 1
10
201.740220
20
235.299628
11
200.959876
21
235.701795
0
LINE
8
Layer 1
10
200.959876
20
235.701795
11
200.300888
21
236.264827
0
LINE
8
Layer 1
10
200.300888
20
236.264827
11
199.777367
21
236.976026
0
LINE
8
Layer 1
10
199.777367
20
236.976026
11
199.403424
21
237.800114
0
LINE
8
Layer 1
10
199.403424
20
237.800114
11
199.179058
21
238.737090
0
LINE
8
Layer 1
10
199.179058
20
238.737090
11
199.104269
21
239.786956
0
LINE
8
Layer 1
10
199.104269
20
239.786956
11
199.267957
21
241.288375
0
LINE
8
Layer 1
10
199.267957
20
241.288375
11
199.759022
21
242.676906
0
LINE
8
Layer 1
10
199.759022
20
242.676906
11
200.537955
21
243.890460
0
LINE
8
Layer 1
10
200.537955
20
243.890460
11
201.565243
21
244.821791
0
LINE
8
Layer 1
10
201.565243
20
244.821791
11
202.812662
21
245.414457
0
LINE
8
Layer 1
10
202.812662
20
245.414457
11
204.206837
21
245.612013
0
LINE
8
Layer 1
10
204.206837
20
245.612013
11
205.386524
21
245.414457
0
LINE
8
Layer 1
10
205.386524
20
245.414457
11
206.306568
21
244.821791
0
LINE
8
Layer 1
10
206.306568
20
244.821791
11
206.899232
21
243.913037
0
LINE
8
Layer 1
10
206.899232
20
243.913037
11
207.096787
21
242.722060
0
LINE
8
Layer 1
10
207.096787
20
242.722060
11
206.814566
21
241.271441
0
LINE
8
Layer 1
10
206.814566
20
241.271441
11
205.967901
21
240.035310
0
LINE
8
Layer 1
10
205.967901
20
240.035310
11
205.315969
21
239.510377
0
LINE
8
Layer 1
10
205.315969
20
239.510377
11
204.466481
21
239.041890
0
LINE
8
Layer 1
10
204.466481
20
239.041890
11
202.174839
21
238.274248
0
LINE
8
Layer 1
10
202.174839
20
238.274248
11
202.492339
21
237.819870
0
LINE
8
Layer 1
10
202.492339
20
237.819870
11
202.902972
21
237.495314
0
LINE
8
Layer 1
10
202.902972
20
237.495314
11
204.003637
21
237.235670
0
LINE
8
Layer 1
10
204.003637
20
237.235670
11
204.844658
21
237.342914
0
LINE
8
Layer 1
10
204.844658
20
237.342914
11
205.516345
21
237.664649
0
LINE
8
Layer 1
10
205.516345
20
237.664649
11
206.916167
21
239.109624
0
LINE
8
Layer 1
10
206.916167
20
239.109624
11
207.204033
21
239.363623
0
LINE
8
Layer 1
10
207.204033
20
239.363623
11
207.525766
21
239.448290
0
LINE
8
Layer 1
10
207.525766
20
239.448290
11
207.525766
21
239.448290
0
LINE
8
Layer 1
10
203.823017
20
243.399392
11
203.049728
21
243.156682
0
LINE
8
Layer 1
10
203.049728
20
243.156682
11
202.400619
21
242.428550
0
LINE
8
Layer 1
10
202.400619
20
242.428550
11
201.977285
21
241.356108
0
LINE
8
Layer 1
10
201.977285
20
241.356108
11
201.836173
21
240.080466
0
LINE
8
Layer 1
10
201.836173
20
240.080466
11
201.836173
21
240.035310
0
LINE
8
Layer 1
10
201.836173
20
240.035310
11
203.027150
21
240.430421
0
LINE
8
Layer 1
10
203.027150
20
240.430421
11
203.935904
21
240.983575
0
LINE
8
Layer 1
10
203.935904
20
240.983575
11
204.511636
21
241.666552
0
LINE
8
Layer 1
10
204.511636
20
241.666552
11
204.703546
21
242.451130
0
LINE
8
Layer 1
10
204.703546
20
242.451130
11
204.455193
21
243.128459
0
LINE
8
Layer 1
10
204.455193
20
243.128459
11
204.184259
21
243.331659
0
LINE
8
Layer 1
10
204.184259
20
243.331659
11
203.823017
21
243.399392
0
LINE
8
Layer 1
10
203.823017
20
243.399392
11
203.823017
21
243.399392
0
LINE
8
Layer 1
10
212.250853
20
234.977895
11
211.236266
21
235.055507
0
LINE
8
Layer 1
10
211.236266
20
235.055507
11
210.337390
21
235.288340
0
LINE
8
Layer 1
10
210.337390
20
235.288340
11
209.554225
21
235.676396
0
LINE
8
Layer 1
10
209.554225
20
235.676396
11
208.886770
21
236.219673
0
LINE
8
Layer 1
10
208.886770
20
236.219673
11
208.363248
21
236.901238
0
LINE
8
Layer 1
10
208.363248
20
236.901238
11
207.989304
21
237.681581
0
LINE
8
Layer 1
10
207.989304
20
237.681581
11
207.764938
21
238.560702
0
LINE
8
Layer 1
10
207.764938
20
238.560702
11
207.690149
21
239.538600
0
LINE
8
Layer 1
10
207.690149
20
239.538600
11
207.870771
21
241.254509
0
LINE
8
Layer 1
10
207.870771
20
241.254509
11
208.412638
21
242.744639
0
LINE
8
Layer 1
10
208.412638
20
242.744639
11
209.242369
21
243.963837
0
LINE
8
Layer 1
10
209.242369
20
243.963837
11
210.286589
21
244.866947
0
LINE
8
Layer 1
10
210.286589
20
244.866947
11
211.466276
21
245.425746
0
LINE
8
Layer 1
10
211.466276
20
245.425746
11
212.702406
21
245.612013
0
LINE
8
Layer 1
10
212.702406
20
245.612013
11
213.803072
21
245.425746
0
LINE
8
Layer 1
10
213.803072
20
245.425746
11
214.621514
21
244.866947
0
LINE
8
Layer 1
10
214.621514
20
244.866947
11
215.146448
21
244.037214
0
LINE
8
Layer 1
10
215.146448
20
244.037214
11
215.321426
21
242.992993
0
LINE
8
Layer 1
10
215.321426
20
242.992993
11
215.214182
21
242.118107
0
LINE
8
Layer 1
10
215.214182
20
242.118107
11
214.892447
21
241.389975
0
LINE
8
Layer 1
10
214.892447
20
241.389975
11
214.418315
21
240.898908
0
LINE
8
Layer 1
10
214.418315
20
240.898908
11
213.808718
21
240.735219
0
LINE
8
Layer 1
10
213.808718
20
240.735219
11
213.108806
21
240.938419
0
LINE
8
Layer 1
10
213.108806
20
240.938419
11
212.860452
21
241.502864
0
LINE
8
Layer 1
10
212.860452
20
241.502864
11
212.905606
21
241.864107
0
LINE
8
Layer 1
10
212.905606
20
241.864107
11
212.973339
21
242.157617
0
LINE
8
Layer 1
10
212.973339
20
242.157617
11
213.086229
21
242.789793
0
LINE
8
Layer 1
10
213.086229
20
242.789793
11
212.928186
21
243.241349
0
LINE
8
Layer 1
10
212.928186
20
243.241349
11
212.521786
21
243.399392
0
LINE
8
Layer 1
10
212.521786
20
243.399392
11
212.019431
21
243.280859
0
LINE
8
Layer 1
10
212.019431
20
243.280859
11
211.550944
21
242.925260
0
LINE
8
Layer 1
10
211.550944
20
242.925260
11
211.144544
21
242.389039
0
LINE
8
Layer 1
10
211.144544
20
242.389039
11
210.828455
21
241.683484
0
LINE
8
Layer 1
10
210.828455
20
241.683484
11
210.557522
21
239.944999
0
LINE
8
Layer 1
10
210.557522
20
239.944999
11
210.687344
21
238.810468
0
LINE
8
Layer 1
10
210.687344
20
238.810468
11
211.076811
21
237.980735
0
LINE
8
Layer 1
10
211.076811
20
237.980735
11
211.725921
21
237.489671
0
LINE
8
Layer 1
10
211.725921
20
237.489671
11
212.589520
21
237.325982
0
LINE
8
Layer 1
10
212.589520
20
237.325982
11
213.323295
21
237.438871
0
LINE
8
Layer 1
10
213.323295
20
237.438871
11
213.989338
21
237.777536
0
LINE
8
Layer 1
10
213.989338
20
237.777536
11
214.638449
21
238.336335
0
LINE
8
Layer 1
10
214.638449
20
238.336335
11
215.276270
21
239.109624
0
LINE
8
Layer 1
10
215.276270
20
239.109624
11
215.564136
21
239.363623
0
LINE
8
Layer 1
10
215.564136
20
239.363623
11
215.885869
21
239.448290
0
LINE
8
Layer 1
10
215.885869
20
239.448290
11
216.145513
21
239.380557
0
LINE
8
Layer 1
10
216.145513
20
239.380557
11
216.337425
21
239.177357
0
LINE
8
Layer 1
10
216.337425
20
239.177357
11
216.518045
21
238.432291
0
LINE
8
Layer 1
10
216.518045
20
238.432291
11
216.422090
21
237.675936
0
LINE
8
Layer 1
10
216.422090
20
237.675936
11
216.134225
21
237.032470
0
LINE
8
Layer 1
10
216.134225
20
237.032470
11
215.428670
21
236.180161
0
LINE
8
Layer 1
10
215.428670
20
236.180161
11
214.531204
21
235.519761
0
LINE
8
Layer 1
10
214.531204
20
235.519761
11
213.464407
21
235.113362
0
LINE
8
Layer 1
10
213.464407
20
235.113362
11
212.250853
21
234.977895
0
LINE
8
Layer 1
10
212.250853
20
234.977895
11
212.250853
21
234.977895
0
LINE
8
Layer 1
10
219.933608
20
243.467126
11
219.888454
21
241.706064
0
LINE
8
Layer 1
10
219.888454
20
241.706064
11
220.046498
21
239.154777
0
LINE
8
Layer 1
10
220.046498
20
239.154777
11
220.277920
21
238.375846
0
LINE
8
Layer 1
10
220.277920
20
238.375846
11
220.610941
21
237.845269
0
LINE
8
Layer 1
10
220.610941
20
237.845269
11
221.090717
21
237.557404
0
LINE
8
Layer 1
10
221.090717
20
237.557404
11
221.717249
21
237.461449
0
LINE
8
Layer 1
10
221.717249
20
237.461449
11
222.575205
21
237.687225
0
LINE
8
Layer 1
10
222.575205
20
237.687225
11
223.478314
21
238.274248
0
LINE
8
Layer 1
10
223.478314
20
238.274248
11
223.975023
21
238.500024
0
LINE
8
Layer 1
10
223.975023
20
238.500024
11
224.217735
21
238.421002
0
LINE
8
Layer 1
10
224.217735
20
238.421002
11
224.404002
21
238.183935
0
LINE
8
Layer 1
10
224.404002
20
238.183935
11
224.584623
21
237.461449
0
LINE
8
Layer 1
10
224.584623
20
237.461449
11
224.404002
21
236.626070
0
LINE
8
Layer 1
10
224.404002
20
236.626070
11
223.907290
21
235.948740
0
LINE
8
Layer 1
10
223.907290
20
235.948740
11
222.654226
21
235.220607
0
LINE
8
Layer 1
10
222.654226
20
235.220607
11
221.243117
21
234.977895
0
LINE
8
Layer 1
10
221.243117
20
234.977895
11
220.242641
21
235.089373
0
LINE
8
Layer 1
10
220.242641
20
235.089373
11
219.386099
21
235.423806
0
LINE
8
Layer 1
10
219.386099
20
235.423806
11
218.673489
21
235.981194
0
LINE
8
Layer 1
10
218.673489
20
235.981194
11
218.104813
21
236.761537
0
LINE
8
Layer 1
10
218.104813
20
236.761537
11
217.670191
21
237.732380
0
LINE
8
Layer 1
10
217.670191
20
237.732380
11
217.359747
21
238.838690
0
LINE
8
Layer 1
10
217.359747
20
238.838690
11
217.111391
21
241.457708
0
LINE
8
Layer 1
10
217.111391
20
241.457708
11
217.179124
21
243.467126
0
LINE
8
Layer 1
10
217.179124
20
243.467126
11
216.298592
21
243.467126
0
LINE
8
Layer 1
10
216.298592
20
243.467126
11
215.728504
21
243.529215
0
LINE
8
Layer 1
10
215.728504
20
243.529215
11
215.372906
21
243.715482
0
LINE
8
Layer 1
10
215.372906
20
243.715482
11
215.147127
21
244.505704
0
LINE
8
Layer 1
10
215.147127
20
244.505704
11
215.210627
21
245.058858
0
LINE
8
Layer 1
10
215.210627
20
245.058858
11
215.401127
21
245.453968
0
LINE
8
Layer 1
10
215.401127
20
245.453968
11
215.718626
21
245.691034
0
LINE
8
Layer 1
10
215.718626
20
245.691034
11
216.163126
21
245.770056
0
LINE
8
Layer 1
10
216.163126
20
245.770056
11
217.450057
21
245.770056
0
LINE
8
Layer 1
10
217.450057
20
245.770056
11
217.935479
21
248.146363
0
LINE
8
Layer 1
10
217.935479
20
248.146363
11
218.624099
21
250.308181
0
LINE
8
Layer 1
10
218.624099
20
250.308181
11
219.493343
21
252.153911
0
LINE
8
Layer 1
10
219.493343
20
252.153911
11
220.520630
21
253.581954
0
LINE
8
Layer 1
10
220.520630
20
253.581954
11
221.689028
21
254.496353
0
LINE
8
Layer 1
10
221.689028
20
254.496353
11
222.302860
21
254.724952
0
LINE
8
Layer 1
10
222.302860
20
254.724952
11
222.936448
21
254.801152
0
LINE
8
Layer 1
10
222.936448
20
254.801152
11
223.783113
21
254.592308
0
LINE
8
Layer 1
10
223.783113
20
254.592308
11
224.426579
21
253.965777
0
LINE
8
Layer 1
10
224.426579
20
253.965777
11
224.832979
21
253.023156
0
LINE
8
Layer 1
10
224.832979
20
253.023156
11
224.968445
21
251.866046
0
LINE
8
Layer 1
10
224.968445
20
251.866046
11
224.785001
21
250.172715
0
LINE
8
Layer 1
10
224.785001
20
250.172715
11
224.234669
21
248.592274
0
LINE
8
Layer 1
10
224.234669
20
248.592274
11
223.317448
21
247.124721
0
LINE
8
Layer 1
10
223.317448
20
247.124721
11
222.033339
21
245.770056
0
LINE
8
Layer 1
10
222.033339
20
245.770056
11
224.562046
21
245.770056
0
LINE
8
Layer 1
10
224.562046
20
245.770056
11
225.081332
21
245.612013
0
LINE
8
Layer 1
10
225.081332
20
245.612013
11
225.239378
21
245.024990
0
LINE
8
Layer 1
10
225.239378
20
245.024990
11
225.079923
21
244.343425
0
LINE
8
Layer 1
10
225.079923
20
244.343425
11
224.601557
21
243.856592
0
LINE
8
Layer 1
10
224.601557
20
243.856592
11
223.804281
21
243.564492
0
LINE
8
Layer 1
10
223.804281
20
243.564492
11
222.688094
21
243.467126
0
LINE
8
Layer 1
10
222.688094
20
243.467126
11
219.933608
21
243.467126
0
LINE
8
Layer 1
10
222.326849
20
252.633688
11
221.965605
21
252.419200
0
LINE
8
Layer 1
10
221.965605
20
252.419200
11
221.559206
21
251.775736
0
LINE
8
Layer 1
10
221.559206
20
251.775736
11
220.768984
21
249.427649
0
LINE
8
Layer 1
10
220.768984
20
249.427649
11
220.159387
21
246.108722
0
LINE
8
Layer 1
10
220.159387
20
246.108722
11
221.322140
21
247.327921
0
LINE
8
Layer 1
10
221.322140
20
247.327921
11
222.146228
21
248.682586
0
LINE
8
Layer 1
10
222.146228
20
248.682586
11
222.654226
21
250.059828
0
LINE
8
Layer 1
10
222.654226
20
250.059828
11
222.823558
21
251.301603
0
LINE
8
Layer 1
10
222.823558
20
251.301603
11
222.699381
21
252.300667
0
LINE
8
Layer 1
10
222.699381
20
252.300667
11
222.544159
21
252.550433
0
LINE
8
Layer 1
10
222.544159
20
252.550433
11
222.326849
21
252.633688
0
LINE
8
Layer 1
10
222.326849
20
252.633688
11
222.326849
21
252.633688
0
LINE
8
Layer 1
10
233.938148
20
242.518863
11
234.395346
21
242.428551
0
LINE
8
Layer 1
10
234.395346
20
242.428551
11
234.773523
21
242.157617
0
LINE
8
Layer 1
10
234.773523
20
242.157617
11
235.044458
21
241.773796
0
LINE
8
Layer 1
10
235.044458
20
241.773796
11
235.134769
21
241.299664
0
LINE
8
Layer 1
10
235.134769
20
241.299664
11
234.999303
21
240.667486
0
LINE
8
Layer 1
10
234.999303
20
240.667486
11
234.564680
21
239.899843
0
LINE
8
Layer 1
10
234.564680
20
239.899843
11
233.983304
21
239.267667
0
LINE
8
Layer 1
10
233.983304
20
239.267667
11
233.294682
21
238.844335
0
LINE
8
Layer 1
10
233.294682
20
238.844335
11
232.538329
21
238.703224
0
LINE
8
Layer 1
10
232.538329
20
238.703224
11
231.951307
21
238.816112
0
LINE
8
Layer 1
10
231.951307
20
238.816112
11
231.454597
21
239.154777
0
LINE
8
Layer 1
10
231.454597
20
239.154777
11
231.132865
21
239.685355
0
LINE
8
Layer 1
10
231.132865
20
239.685355
11
231.025621
21
240.373976
0
LINE
8
Layer 1
10
231.025621
20
240.373976
11
231.070774
21
241.299664
0
LINE
8
Layer 1
10
231.070774
20
241.299664
11
231.115931
21
241.796374
0
LINE
8
Layer 1
10
231.115931
20
241.796374
11
231.025621
21
242.067307
0
LINE
8
Layer 1
10
231.025621
20
242.067307
11
230.844998
21
242.157617
0
LINE
8
Layer 1
10
230.844998
20
242.157617
11
230.472464
21
241.965706
0
LINE
8
Layer 1
10
230.472464
20
241.965706
11
229.987042
21
241.389975
0
LINE
8
Layer 1
10
229.987042
20
241.389975
11
228.903313
21
239.403133
0
LINE
8
Layer 1
10
228.903313
20
239.403133
11
228.022781
21
236.784116
0
LINE
8
Layer 1
10
228.022781
20
236.784116
11
227.757491
21
235.881007
0
LINE
8
Layer 1
10
227.757491
20
235.881007
11
227.458335
21
235.339141
0
LINE
8
Layer 1
10
227.458335
20
235.339141
11
227.040648
21
235.068207
0
LINE
8
Layer 1
10
227.040648
20
235.068207
11
226.419760
21
234.977895
0
LINE
8
Layer 1
10
226.419760
20
234.977895
11
225.685984
21
235.203673
0
LINE
8
Layer 1
10
225.685984
20
235.203673
11
225.200561
21
235.881007
0
LINE
8
Layer 1
10
225.200561
20
235.881007
11
224.946564
21
237.055049
0
LINE
8
Layer 1
10
224.946564
20
237.055049
11
224.861898
21
238.770957
0
LINE
8
Layer 1
10
224.861898
20
238.770957
11
225.070742
21
241.632686
0
LINE
8
Layer 1
10
225.070742
20
241.632686
11
225.697274
21
244.347658
0
LINE
8
Layer 1
10
225.697274
20
244.347658
11
225.962562
21
244.912102
0
LINE
8
Layer 1
10
225.962562
20
244.912102
11
226.352026
21
245.295923
0
LINE
8
Layer 1
10
226.352026
20
245.295923
11
226.916470
21
245.532990
0
LINE
8
Layer 1
10
226.916470
20
245.532990
11
227.661535
21
245.612013
0
LINE
8
Layer 1
10
227.661535
20
245.612013
11
228.293714
21
245.499123
0
LINE
8
Layer 1
10
228.293714
20
245.499123
11
228.474334
21
245.070147
0
LINE
8
Layer 1
10
228.474334
20
245.070147
11
228.135668
21
243.444549
0
LINE
8
Layer 1
10
228.135668
20
243.444549
11
227.774425
21
241.864107
0
LINE
8
Layer 1
10
227.774425
20
241.864107
11
227.548648
21
240.193356
0
LINE
8
Layer 1
10
227.548648
20
240.193356
11
228.338869
21
241.954419
0
LINE
8
Layer 1
10
228.338869
20
241.954419
11
229.219400
21
243.354239
0
LINE
8
Layer 1
10
229.219400
20
243.354239
11
230.133799
21
244.398459
0
LINE
8
Layer 1
10
230.133799
20
244.398459
11
231.025621
21
245.092724
0
LINE
8
Layer 1
10
231.025621
20
245.092724
11
231.866640
21
245.482190
0
LINE
8
Layer 1
10
231.866640
20
245.482190
11
232.628639
21
245.612013
0
LINE
8
Layer 1
10
232.628639
20
245.612013
11
233.204372
21
245.516057
0
LINE
8
Layer 1
10
233.204372
20
245.516057
11
233.622058
21
245.228190
0
LINE
8
Layer 1
10
233.622058
20
245.228190
11
233.892993
21
244.776636
0
LINE
8
Layer 1
10
233.892993
20
244.776636
11
233.983304
21
244.144458
0
LINE
8
Layer 1
10
233.983304
20
244.144458
11
233.734948
21
242.518863
0
LINE
8
Layer 1
10
233.734948
20
242.518863
11
233.938148
21
242.518863
0
LINE
8
Layer 1
10
237.421473
20
234.977895
11
236.253074
21
235.231895
0
LINE
8
Layer 1
10
236.253074
20
235.231895
11
235.321742
21
235.993894
0
LINE
8
Layer 1
10
235.321742
20
235.993894
11
234.729077
21
237.167937
0
LINE
8
Layer 1
10
234.729077
20
237.167937
11
234.531523
21
238.658068
0
LINE
8
Layer 1
10
234.531523
20
238.658068
11
234.740367
21
240.413488
0
LINE
8
Layer 1
10
234.740367
20
240.413488
11
235.366898
21
242.067307
0
LINE
8
Layer 1
10
235.366898
20
242.067307
11
236.337741
21
243.529216
0
LINE
8
Layer 1
10
236.337741
20
243.529216
11
237.579516
21
244.663747
0
LINE
8
Layer 1
10
237.579516
20
244.663747
11
239.018848
21
245.408812
0
LINE
8
Layer 1
10
239.018848
20
245.408812
11
240.537200
21
245.657167
0
LINE
8
Layer 1
10
240.537200
20
245.657167
11
241.191955
21
245.453967
0
LINE
8
Layer 1
10
241.191955
20
245.453967
11
241.485465
21
244.776637
0
LINE
8
Layer 1
10
241.485465
20
244.776637
11
242.433730
21
244.866947
0
LINE
8
Layer 1
10
242.433730
20
244.866947
11
242.913507
21
244.799214
0
LINE
8
Layer 1
10
242.913507
20
244.799214
11
243.269106
21
244.596014
0
LINE
8
Layer 1
10
243.269106
20
244.596014
11
243.489239
21
244.268637
0
LINE
8
Layer 1
10
243.489239
20
244.268637
11
243.562616
21
243.828371
0
LINE
8
Layer 1
10
243.562616
20
243.828371
11
243.336840
21
242.022151
0
LINE
8
Layer 1
10
243.336840
20
242.022151
11
242.953020
21
239.380557
0
LINE
8
Layer 1
10
242.953020
20
239.380557
11
242.817553
21
236.580917
0
LINE
8
Layer 1
10
242.817553
20
236.580917
11
242.727242
21
235.841495
0
LINE
8
Layer 1
10
242.727242
20
235.841495
11
242.456307
21
235.339141
0
LINE
8
Layer 1
10
242.456307
20
235.339141
11
242.004753
21
235.068207
0
LINE
8
Layer 1
10
242.004753
20
235.068207
11
241.327422
21
234.977895
0
LINE
8
Layer 1
10
241.327422
20
234.977895
11
240.655734
21
235.068207
0
LINE
8
Layer 1
10
240.655734
20
235.068207
11
240.175956
21
235.339141
0
LINE
8
Layer 1
10
240.175956
20
235.339141
11
239.905024
21
235.835850
0
LINE
8
Layer 1
10
239.905024
20
235.835850
11
239.814713
21
236.558337
0
LINE
8
Layer 1
10
239.814713
20
236.558337
11
239.837282
21
236.919583
0
LINE
8
Layer 1
10
239.837282
20
236.919583
11
239.423828
21
236.070095
0
LINE
8
Layer 1
10
239.423828
20
236.070095
11
238.883373
21
235.463317
0
LINE
8
Layer 1
10
238.883373
20
235.463317
11
238.215919
21
235.099251
0
LINE
8
Layer 1
10
238.215919
20
235.099251
11
237.421465
21
234.977895
0
LINE
8
Layer 1
10
237.421465
20
234.977895
11
237.421473
21
234.977895
0
LINE
8
Layer 1
10
238.302005
20
237.258249
11
238.905959
21
237.478382
0
LINE
8
Layer 1
10
238.905959
20
237.478382
11
239.453468
21
238.138781
0
LINE
8
Layer 1
10
239.453468
20
238.138781
11
239.944534
21
239.363622
0
LINE
8
Layer 1
10
239.944534
20
239.363622
11
240.379156
21
241.277085
0
LINE
8
Layer 1
10
240.379156
20
241.277085
11
240.808133
21
243.557438
0
LINE
8
Layer 1
10
240.808133
20
243.557438
11
239.916313
21
243.365532
0
LINE
8
Layer 1
10
239.916313
20
243.365532
11
239.092224
21
242.834950
0
LINE
8
Layer 1
10
239.092224
20
242.834950
11
238.381027
21
242.044729
0
LINE
8
Layer 1
10
238.381027
20
242.044729
11
237.827872
21
241.028731
0
LINE
8
Layer 1
10
237.827872
20
241.028731
11
237.472273
21
239.865977
0
LINE
8
Layer 1
10
237.472273
20
239.865977
11
237.353740
21
238.635491
0
LINE
8
Layer 1
10
237.353740
20
238.635491
11
237.415828
21
238.037181
0
LINE
8
Layer 1
10
237.415828
20
238.037181
11
237.602093
21
237.596915
0
LINE
8
Layer 1
10
237.602093
20
237.596915
11
237.912538
21
237.342916
0
LINE
8
Layer 1
10
237.912538
20
237.342916
11
238.302005
21
237.258249
0
LINE
8
Layer 1
10
238.302005
20
237.258249
11
238.302005
21
237.258249
 0 
ENDSEC
 0 
EOF